<?xml version="1.0" encoding="UTF-8" standalone="no"?>
<!-- Created with Inkscape (http://www.inkscape.org/) -->

<svg
   width="157.94226mm"
   height="267.63409mm"
   viewBox="0 0 157.94226 267.63409"
   version="1.1"
   id="svg1"
   xml:space="preserve"
   sodipodi:docname="logo.svg"
   inkscape:version="1.3.2 (091e20e, 2023-11-25)"
   xmlns:inkscape="http://www.inkscape.org/namespaces/inkscape"
   xmlns:sodipodi="http://sodipodi.sourceforge.net/DTD/sodipodi-0.dtd"
   xmlns="http://www.w3.org/2000/svg"
   xmlns:svg="http://www.w3.org/2000/svg"><sodipodi:namedview
     id="namedview1"
     pagecolor="#ffffff"
     bordercolor="#000000"
     borderopacity="0.25"
     inkscape:showpageshadow="2"
     inkscape:pageopacity="0.0"
     inkscape:pagecheckerboard="0"
     inkscape:deskcolor="#d1d1d1"
     inkscape:document-units="mm"
     inkscape:zoom="0.32994993"
     inkscape:cx="-159.11505"
     inkscape:cy="522.80659"
     inkscape:window-width="1512"
     inkscape:window-height="830"
     inkscape:window-x="0"
     inkscape:window-y="38"
     inkscape:window-maximized="0"
     inkscape:current-layer="g2"><inkscape:page
       x="0"
       y="0"
       width="157.94226"
       height="267.63409"
       id="page1"
       margin="0"
       bleed="0" /></sodipodi:namedview><defs
     id="defs1" /><g
     id="g1"
     transform="matrix(0.26458333,0,0,0.26458334,220.00001,0)"><g
       id="g3"><g
         id="g4"
         transform="translate(-198.43533,-114.35255)"><g
           id="g2"><path
             style="fill:#000000;fill-opacity:1"
             d="m -437.11682,1106.3845 c -11.05538,-3.9737 -10.1844,-16.553 2.14843,-31.0291 5.1862,-6.0875 5.34055,-7.8106 1.69234,-18.8922 -2.81427,-8.5485 -3.71988,-22.1711 -1.9782,-29.7568 0.85579,-3.7273 0.79761,-3.8235 -7.39386,-12.2157 -9.61857,-9.8543 -7.9151,-10.1319 -22.49086,3.6652 -9.81254,9.2884 -10.20423,10.6663 -4.97785,17.5111 6.40752,8.3917 4.21095,14.7636 -7.84083,22.7449 -7.42759,4.9189 -8.25323,5.149 -12.1328,3.3814 -2.07082,-0.9436 -3.07986,-2.8304 -5.21412,-9.75 -1.45551,-4.7191 -3.981,-10.9724 -5.6122,-13.8964 -3.28684,-5.8918 -3.46912,-14.0546 -0.44394,-19.8808 6.98346,-13.4496 14.46636,-22.8096 24.67732,-30.8678 5.84277,-4.61095 5.86698,-4.69931 2.40913,-8.79074 -2.94475,-3.4843 -6.70108,-11.38672 -7.79288,-16.39436 -0.67013,-3.07361 -0.9501,-3.25 -5.15856,-3.25 -4.44997,0 -4.44997,0 -4.25091,8.53037 0.12098,5.18458 -0.23662,8.96604 -0.91172,9.64114 -3.08085,3.08086 -24.85692,0.61826 -33.98778,-3.84359 -4.78634,-2.33887 -5.51028,-6.57909 -2.05603,-12.04248 1.27343,-2.01411 4.56532,-8.15946 7.31532,-13.65633 l 5,-9.99432 -5.58737,-5.57477 c -6.97524,-6.95949 -10.21519,-14.55062 -10.33213,-24.20793 -0.19109,-15.78046 9.63883,-19.77882 29.21852,-11.88473 17.35904,6.99877 15.95406,7.98795 16.48963,-11.60956 0.25339,-9.27179 0.6296,-17.75661 0.83603,-18.85516 0.35583,-1.89368 -0.0919,-1.98184 -8.62468,-1.6984 -23.13045,0.76836 -33.83904,-7.92142 -33.64756,-27.30424 0.0695,-7.03241 0.48272,-8.77793 3.41673,-14.43197 5.98742,-11.53815 8.99611,-12.13047 18.44853,-3.63193 3.80531,3.4213 6.86613,5.14767 11.4851,6.47786 3.46346,0.99742 7.03262,2.12797 7.93146,2.51234 1.11069,0.47496 3.35328,-0.69657 7,-3.65679 12.72796,-10.33194 16.72322,-12.24021 27.94114,-13.3456 6.99944,-0.6897 7.17354,-0.77545 8.62441,-4.24789 2.44527,-5.85234 5.06355,-21.75334 6.2038,-37.67602 0.89957,-12.5619 1.73443,-17.27555 5.13632,-29 7.81093,-26.91995 8.47537,-42.32921 3.98855,-92.5 -4.48947,-50.20038 -2.19108,-65.76584 13.43702,-91 9.444,-15.2489 15.35786,-19.18366 36.38537,-24.20884 10.98796,-2.62592 10.74397,-2.27434 6.36412,-9.1702 -3.71499,-5.84908 -3.71499,-5.84908 -17.32805,-11.14318 l -13.61307,-5.2941 -11.81812,5.92189 c -18.15202,9.09572 -23.87663,10.577 -46.20901,11.95688 -22.43287,1.38609 -50.31606,0.0541 -61.74674,-2.94968 -17.4292,-4.58007 -48.29596,-21.20169 -64.17345,-34.55712 -28.36305,-23.85774 -33.53727,-40.43821 -20.59994,-66.01121 11.30372,-22.34386 44.47201,-47.45213 72.27339,-54.71069 23.73318,-6.1964 36.08623,-2.2902 60,18.97282 5.225,4.64583 12.84198,10.96459 16.92663,14.04169 31.36553,23.62871 70.84345,69.47237 94.50921,109.74862 11.89176,20.23834 11.16974,19.72391 23.44694,16.70548 2.6361,-0.6481 2.63048,-7.8445 -0.0208,-26.58202 -1.75323,-12.39086 -12.28421,-26.1298 -32.36202,-42.2202 -37.41566,-29.98499 -60.36408,-72.04803 -69.56051,-127.50014 -5.44834,-32.85207 1.66607,-67.61515 16.6472,-81.34304 14.91593,-13.66815 24.32804,-18.29966 30.60726,-15.06123 8.06759,4.16077 31.13295,21.42958 39.75917,29.7673 l 9.45312,9.13697 1.80636,-14.92117 c 4.85659,-40.11718 9.61604,-53.92783 24.06519,-69.83071 25.62935,-28.20791 62.66285,-45.27009 112.48173,-51.82293 12.01119,-1.57987 10.28459,-3.33138 28.23649,28.64394 8.21053,14.62431 13.73273,50.94638 14.71178,96.76621 0.41498,19.42086 0.90332,26.96194 1.76746,27.29354 1.30616,0.50122 17.70132,-3.95667 21.20323,-5.76521 3.17126,-1.63779 60.867263,0.51024 68.210628,2.53949 8.660245,2.39315 14.988782,10.22897 13.684738,16.94407 -0.336742,1.73402 -3.975632,8.32777 -8.086423,14.65277 -4.110791,6.325 -8.328935,13.075 -9.373653,15 -1.044717,1.925 -4.821446,7.56924 -8.39273,12.54275 -11.08898,15.44295 -15.26692,22.46182 -24.71267,41.51685 -21.02213,42.40823 -23.35087,46.52648 -28.99471,51.27545 -10.3844,8.7379 -60.86879,31.85137 -86.85005,39.7629 -14.13759,4.30503 -34.00378,13.01729 -39.84902,17.47567 -6.13783,4.68155 -14.31459,19.99919 -14.31459,26.81571 0,0.77712 4.18936,1.5799 12.29746,2.35647 25.04706,2.39893 51.13385,11.03591 58.00832,19.20576 6.00423,7.13562 10.55954,18.8032 12.12209,31.04844 0.80709,6.325 2.66404,20.05 4.12655,30.5 2.48168,17.73219 2.67879,21.83589 2.9541,61.5 0.16224,23.375 0.80521,49.25 1.42883,57.5 2.45073,32.42137 5.22862,60.3277 6.6694,67 6.46127,29.92236 7.39325,37.04973 7.39325,56.54011 0,17.00779 -0.53329,20.35605 -7.11542,44.67438 -6.8687,25.37707 -12.39064,37.90814 -25.583,58.05614 -7.93918,12.1251 -21.39723,30.3179 -26.80053,36.22937 -41.64444,45.561 -53.18431,52.4119 -105.30167,62.5138 -10.57279,2.0493 -15.1074,3.484 -22.11028,6.9951 -8.80965,4.4171 -8.80965,4.4171 -9.51823,14.0701 -0.85886,11.7003 -1.54782,13.6622 -6.47809,18.4469 -16.47387,15.9873 -44.07874,24.9718 -59.59278,19.3954 z m 22.2586,-11.0065 c 18.32392,-3.7849 34.2414,-15.8614 34.2414,-25.9787 0,-12.6392 2.13037,-16.6592 11.6495,-21.9826 6.21088,-3.4733 6.30687,-3.5904 4.81177,-5.8723 -15.59505,-23.8008 23.18609,-52.66435 26.09131,-78.34319 0.736,-6.5054 2.90974,-10.07728 4.01694,-6.60063 6.89816,21.66054 -9.23536,47.45242 -11.19444,50.46692 -8.22466,12.6555 -17.61525,33.6965 -15.91342,35.6564 0.1245,0.1434 2.20906,-0.4447 4.63235,-1.3068 2.42329,-0.8621 10.50479,-2.8504 17.95887,-4.4184 29.73039,-6.254 46.15021,-12.7663 59.75807,-23.7007 12.76832,-10.2599 31.722,-29.26979 42.20953,-42.3348 12.70651,-15.82934 51.97952,-68.88182 51.97952,-119.91429 0,-12.98545 -3.60175,-45.02079 -5.24665,-46.66569 -0.20491,-0.20491 -2.80284,0.55088 -5.77319,1.67952 -6.13234,2.33011 -18.98016,3.79006 -18.98016,2.15679 0,-0.56856 1.60554,-1.33495 3.56786,-1.70308 3.09603,-0.58082 17.52251,-7.53778 19.70397,-9.50195 0.67073,-0.60393 -3.81163,-33.92443 -4.68048,-34.79328 -0.17957,-0.17956 -5.18912,1.03892 -11.13235,2.70775 -12.55182,3.52449 -31.00884,4.52199 -26.959,1.45698 1.1,-0.8325 5.15,-2.41956 9,-3.5268 9.98088,-2.87044 26.90203,-9.01625 27.54133,-10.00309 0.29773,-0.45959 0.21305,-4.11099 -0.18818,-8.11423 -0.40123,-4.00325 -0.75733,-11.20923 -0.79133,-16.01329 -0.0618,-8.73467 -0.0618,-8.73467 -6.06182,-8.10755 -7.72927,0.80787 -7.80919,-0.61492 -0.25,-4.4506 5.45951,-2.77027 5.75626,-3.11442 5.8739,-6.81243 0.17265,-5.42677 0.0188,-5.50816 -6.30167,-3.3336 -5.60824,1.92952 -13.32638,2.6185 -13.31766,1.18884 0.003,-0.4125 4.32844,-2.95009 9.61316,-5.6391 9.60859,-4.8891 9.60859,-4.8891 9.01045,-18 -0.32897,-7.21099 -0.88119,-22.5609 -1.22716,-34.1109 -0.63247,-21.11533 -2.59646,-46.02877 -3.71688,-47.14919 -2.32648,-2.32648 -32.0568,9.18077 -7.93414,-6.46308 5.31213,-3.44499 6.25,-4.49097 6.25,-6.97047 0,-3.59185 0.50125,-3.62169 -8.7888,0.52322 -12.12359,5.40914 -20.2112,8.40252 -20.2112,7.48054 0,-0.96149 8.15983,-6.59681 18.5,-12.77641 11.44928,-6.84244 10.789,-5.5176 7.45103,-14.95029 -1.59485,-4.50687 -2.59628,-8.19432 -2.22538,-8.19432 0.37089,0 0.18985,-0.48449 -0.40231,-1.07665 -0.76888,-0.76888 -2.75565,-0.23735 -6.95,1.85937 -15.23755,7.61713 -49.03372,16.64307 -71.87334,19.1952 -22.32069,2.49415 -83.01073,-1.59297 -98.24704,-6.61636 -3.73259,-1.23063 -10.87439,-4.68159 -13.40733,-6.4785 -4.12196,-2.92419 -4.64219,-2.5033 -9.34434,7.56004 -7.52005,16.09408 -7.86674,18.09678 -6.55966,37.89253 1.43645,21.75509 0.93082,20.39095 7.85476,21.19156 3.13698,0.36274 8.85361,1.37156 12.70361,2.24185 3.85,0.87028 10.9375,1.76021 15.75,1.97762 9.96552,0.45018 18.36949,3.84262 -16.05214,3.59648 -17.30214,-0.12372 -17.30214,-0.12372 -17,4.01657 0.36247,4.96707 7.77974,9.5495 15.55214,9.6082 2.3375,0.0177 4.25,0.44254 4.25,0.9442 0,1.69005 -7.45333,2.10153 -13.75037,0.75912 l -6.25038,-1.33245 0.23872,30.58061 c 0.23029,29.50055 0.15595,30.86316 -2.10477,38.58061 -5.96586,20.36576 -6.19038,22.3 -2.58852,22.3 118.88376,31.36476 -4.22806,10.10566 -4.95743,15.25379 -0.3822,2.88121 -0.3259,5.60758 0.12513,6.0586 22.88357,8.71769 19.73075,3.21704 -1.14985,6.99181 -0.33233,0.3323 -1.97536,6.8573 -3.65117,14.5 -1.67582,7.6427 -3.74895,16.0508 -4.60696,18.68467 -0.85802,2.63387 -1.39001,4.93413 -1.18221,5.1117 40.47981,11.44247 -4.17178,17.32978 -14.58101,77.35707 -1.60535,9.25762 -1.60535,9.25762 2.30514,15 2.15078,3.1583 4.86522,6.59962 6.03209,7.64736 3.57597,3.21088 1.9789,5.967 -4.14055,7.1455 -1.17279,0.22586 -4.63109,3.09478 -7.6851,6.37539 -4.01385,4.31164 -7.49277,6.86277 -12.55276,9.20506 -11.04022,5.11055 -20.45993,12.62915 -16.25,12.97038 6.04742,0.49017 21.50964,-2.90413 27.01373,-5.93011 6.37955,-3.50728 14.39981,-6.5082 24.23627,-9.06842 158.78776,-41.32912 -22.31266,14.40315 -22.98998,19.62826 -2.45793,18.96156 -6.51004,24.51726 -6.51004,8.92568 0,-9.34327 0,-9.34327 -6.55526,-8.1114 -3.6054,0.67752 -6.8167,1.4933 -7.13624,1.81284 -1.88842,1.88842 7.07154,16.94007 15.26411,25.64183 8.54886,9.08021 8.19983,13.00308 -0.62935,7.07334 -3.97737,-2.67123 -4.46059,-2.78033 -5.53667,-1.25 -0.64844,0.92216 -4.62933,4.60166 -8.84643,8.17666 -15.60876,13.23219 -21.96482,27.69759 -17.66351,40.19959 4.52953,13.1653 9.55256,16.7803 15.79759,11.3694 2.80576,-2.4311 2.80576,-2.4311 -1.0849,-6.4363 -10.03577,-10.3311 -4.78994,-24.2821 14.92107,-39.6818 9.16009,-7.15654 16.89449,-15.06355 17.93187,-18.33205 1.10684,-3.48734 2.95242,-1.91833 3.91724,3.33023 0.69423,3.77657 0.52372,5.53063 -0.80938,8.32616 -1.68889,3.54164 -1.68889,3.54164 3.62049,8.92376 6.89746,6.992 8.74474,7.4323 13.06319,3.1138 47.9859,-75.14099 37.91363,-54.51969 0.77181,14.0678 0.0248,0.5996 13.45786,6.899 21.18076,9.9326 3.40732,1.3384 5.57519,5.1868 2.92183,5.1868 -2.68716,0 -20.46956,-5.1257 -22.34872,-6.4419 -4.5084,-3.1578 -5.10758,-2.2723 -4.52822,6.6919 0.29326,4.5375 1.49682,12.3173 2.67458,17.2884 2.14139,9.0383 2.14139,9.0383 8.35777,10.8386 18.11139,5.2451 25.71637,7.9826 25.71637,9.2568 0,2.0272 -7.54079,1.6692 -20.69063,-0.9822 -11.19062,-2.2563 -11.19062,-2.2563 -17.5,6.2403 -9.86986,13.2914 -10.28624,14.9433 -4.07041,16.1487 6.00499,1.1646 8.86034,1.0596 17.01964,-0.6258 z m 70.2414,-65.4148 c 0,-1.5061 0.52215,-2.0461 1.75,-1.8096 0.9625,0.1853 1.75,0.9997 1.75,1.8096 0,0.8099 -0.7875,1.6243 -1.75,1.8096 -1.22785,0.2365 -1.75,-0.3034 -1.75,-1.8096 z m 1.66667,-0.6667 c -0.36667,-0.3666 -0.66667,-0.067 -0.66667,0.6667 0,0.7333 0.3,1.0333 0.66667,0.6667 0.36666,-0.3667 0.36666,-0.9667 0,-1.3334 z m 56.61927,-18.5833 c -0.52742,-0.6875 -1.97084,-3.8031 -3.20759,-6.9236 -17.95203,-32.72531 -15.42737,-44.59746 -0.67516,-15.86939 6.43809,12.46129 9.42981,30.02369 3.88275,22.79299 z m 62.40156,-82.39583 c -1.41552,-1.41552 -0.61453,-3.35417 1.38582,-3.35417 1.39796,0 1.96801,0.54305 1.75,1.66714 -0.35694,1.84048 -2.064,2.75885 -3.13582,1.68703 z m 2.3125,-1.85417 c 0,-0.275 -0.225,-0.5 -0.5,-0.5 -0.275,0 -0.5,0.225 -0.5,0.5 0,0.275 0.225,0.5 0.5,0.5 0.275,0 0.5,-0.225 0.5,-0.5 z m -218.72612,-46.77086 c 0.33757,-0.87969 0.0765,-1.81799 -0.58006,-2.0851 -0.6566,-0.26711 -0.40632,-0.52119 0.55618,-0.56461 1.96676,-0.0887 2.37856,2.41455 0.58006,3.52608 -0.77717,0.48032 -0.96389,0.18611 -0.55618,-0.87637 z m -2.27388,-0.22866 c 0,-0.275 0.225,-0.5 0.5,-0.5 0.275,0 0.5,0.225 0.5,0.5 0,0.275 -0.225,0.5 -0.5,0.5 -0.275,0 -0.5,-0.225 -0.5,-0.5 z m 243.93971,-2.33414 c 1.55126,-0.22704 2.14211,0.0935 1.84334,1 -0.24184,0.73378 -1.46708,1.48451 -2.72276,1.66829 -3.41861,0.50034 -1.86863,-2.26609 0.87942,-2.66829 z m 0.0603,1.33414 c 0,-0.275 -0.225,-0.5 -0.5,-0.5 -0.275,0 -0.5,0.225 -0.5,0.5 0,0.275 0.225,0.5 0.5,0.5 0.275,0 0.5,-0.225 0.5,-0.5 z m -120.5,-125.72725 c -7.86937,-2.80507 -17.5,-13.01424 -17.5,-18.55128 0,-3.09452 1.28922,-3.43836 8.19596,-2.18593 10.96493,1.98832 37.66052,1.37094 44.80605,-1.03621 9.38232,-3.16068 10.51866,-0.84601 3.94099,8.02759 -8.24215,11.11905 -15.77993,15.0267 -28.73051,14.89414 -4.24187,-0.0434 -9.06249,-0.56016 -10.71249,-1.14831 z m 22.25768,-5.89046 c 2.79531,-0.8945 5.24232,-3.37615 5.24232,-5.31655 0,-1.10379 -29.86004,-0.60122 -30.54939,0.51418 -2.90733,4.70416 14.9967,8.1017 25.30707,4.80237 z m -103.75768,-6.95561 c 0,-2.56264 3.30983,-2.27193 3.81184,0.33481 0.2311,1.2 -0.30742,1.73851 -1.73852,1.73851 -1.4311,0 -2.07332,-0.64222 -2.07332,-2.07332 z m 54.6875,-1.57251 c -1.66518,-1.66518 -0.74046,-10.51101 1.0625,-10.1638 1.38289,0.26632 1.75,1.36555 1.75,5.24 0,4.53979 -1.16208,6.57422 -2.8125,4.9238 z m -20.28565,-1.74935 c -0.69384,-1.80811 1.14407,-8.60674 3.01037,-11.13571 2.86468,-3.88185 3.89207,-0.41685 1.89316,6.38489 -1.71703,5.84258 -3.73451,7.79724 -4.90353,4.75082 z m 119.28336,-3.13874 c -2.12933,-4.46525 -2.28271,-9.63259 -0.26291,-8.85752 1.60013,0.61403 4.5777,7.38632 4.5777,10.41168 0,3.17848 -2.48474,2.28349 -4.31479,-1.55416 z m -135.5664,1.17708 c -1.80194,-2.17121 0.44303,-10.98295 3.28089,-12.87784 3.08606,-2.06062 3.29386,-0.22974 0.93635,8.24978 -1.73233,6.23085 -2.33665,6.89404 -4.21724,4.62806 z m 118.40687,-1.5935 c -1.95217,-3.77508 -1.94264,-6.04966 0.0254,-6.04966 1.6989,0 4.87148,6.50735 3.92176,8.04402 -1.04979,1.69861 -2.38672,1.0231 -3.94711,-1.99436 z m 31.46249,-3.58519 c -3.26293,-9.80511 -0.91223,-12.91338 3.09399,-4.0911 2.27375,5.00713 2.53782,10.62663 0.49937,10.62663 -0.85808,0 -2.27769,-2.58196 -3.59336,-6.53553 z m -117.52537,-13.99604 c -21.42915,-7.92593 -23.41486,-38.6251 -3.76339,-58.18223 28.80155,-28.66329 66.13728,18.89874 38.43066,48.95687 -8.26804,8.96976 -24.02297,13.16233 -34.66727,9.22536 z m 13.9924,-15.08961 c 3.18036,-1.22042 4.89517,-6.19514 3.08683,-8.95501 -3.17059,-4.83893 -13.54203,-1.75822 -13.54203,4.02249 0,3.71721 6.11019,6.59986 10.4552,4.93252 z m 15.56481,-15.88917 c 5.31893,-2.75052 6.45783,-8.6395 3.10033,-16.03102 -6.01537,-13.24279 -20.12034,-12.52211 -20.12034,1.02804 0,12.49738 8.08445,19.62374 17.02001,15.00298 z m 47.97351,29.63598 c -23.43025,-7.68771 -28.42907,-41.33631 -8.86154,-59.64984 21.13533,-19.78087 52.04028,9.93649 41.81679,40.20989 -4.85817,14.38582 -20.40618,23.55743 -32.95525,19.43995 z m 10.17774,-16.78061 c 3.8279,-3.46421 0.162,-10.35696 -5.49384,-10.3297 -3.99845,0.0193 -5.29369,0.84519 -6.56361,4.18533 -2.24983,5.91752 7.06373,10.66362 12.05745,6.14437 z m 10.95608,-15.47236 c 4.16087,-4.16087 0.6154,-19.4326 -5.28774,-22.77642 -10.43879,-5.91302 -15.31013,14.88228 -5.32592,22.73586 3.50523,2.75722 7.88028,2.77394 10.61366,0.0406 z m -126.95068,-54.54027 c -254.62063,-512.94352 -254.62063,-512.94352 0,0 z m -26.02667,-29.28287 c 0.42971,-1.28913 1.80131,-1.5207 1.925,-0.325 0.0412,0.39875 -0.465,0.905 -1.125,1.125 -0.66,0.22 -1.02,-0.14 -0.8,-0.8 z m -96.73179,373.34301 c 1.22724,-0.47093 1.58179,-2.1272 1.58179,-7.38921 0,-8.49925 1.74443,-11.06853 8.08999,-11.91531 4.21404,-0.56234 4.42341,-0.74859 4.71161,-4.19143 0.3016,-3.60294 0.3016,-3.60294 -9.88178,-4.76091 -11.64265,-1.3239 -10.94863,-1.66999 -15.49135,7.72504 -1.42575,2.94866 -4.39431,7.31619 -6.59682,9.70562 -2.2025,2.38943 -3.72253,4.80074 -3.37784,5.35845 0.53549,0.86646 9.46686,3.86146 16.04619,5.38087 3.14458,0.7262 3.24746,0.72801 4.91821,0.0869 z m 21.37372,-36.58494 c 0.65557,-0.65557 3.76494,-2.56807 6.90972,-4.25 7.21702,-3.85992 9.65978,-8.32021 12.40981,-22.65941 6.44881,-2.23551 26.36734,-91.49616 4.92448,-66.39866 -15.81008,18.65734 -22.03594,27.27471 -22.03594,30.50049 0,0.60489 2.925,3.89814 6.5,7.31834 5.92276,5.66629 8.17471,9.68117 5.43017,9.68117 -0.5884,0 -3.03198,-1.35 -5.43017,-3 -6.11179,-4.20502 -6.17786,-4.13687 -6.71034,6.92108 -0.39181,8.13663 -0.96461,10.91621 -3.18462,15.45375 -3.20632,6.55349 -13.36342,18.43491 -15.85504,18.54667 -3.69997,0.16597 -1.17946,-5.30322 5.95495,-12.9215 1.80274,-1.925 3.2816,-3.77914 3.28637,-4.12033 0.0205,-1.46642 -15.98622,-6.27084 -22.22689,-6.6714 -11.09809,-0.71234 -12.14105,-0.1463 -11.48275,6.23201 0.75725,7.33704 2.82732,10.9097 11.09961,19.15644 7.11871,7.09672 7.11871,7.09672 18.16871,7.25 7.40694,0.10275 11.44297,-0.23968 12.24193,-1.03865 z m 31.1755,-16.88375 c 0.0595,-1.05229 -4.94942,-5.27566 -5.54757,-4.67751 -0.32341,0.32341 -0.83045,2.39546 -1.12675,4.60455 -0.53873,4.01654 -0.53873,4.01654 3.05151,2.33259 1.97464,-0.92617 3.6049,-1.94301 3.62281,-2.25963 z m -28.10703,-63.9878 c 4.73649,-1.01579 5.05339,-1.29604 7.0674,-6.25 1.1597,-2.85258 4.13424,-7.21152 6.61009,-9.68652 4.39592,-4.39442 12.46211,-15.3552 12.46211,-16.9342 0,-1.22489 -10.19052,0.88158 -13,2.68721 -1.375,0.88371 -5.13605,3.79675 -8.35789,6.47344 -3.22183,2.67669 -7.15933,5.127 -8.75,5.44513 -2.80863,0.56173 -2.89211,0.75378 -2.89211,6.65342 0,7.03563 -1.31031,6.72722 -3.91071,-0.92047 -1.35062,-3.97213 -2.19,-4.90403 -5.58929,-6.20537 -2.2,-0.84222 -7.82834,-4.15657 -12.50743,-7.36523 -10.11118,-6.93369 -10.32296,-6.96471 -12.38399,-1.81369 -4.28634,10.7126 -0.14505,22.1873 9.89142,27.40717 3.59344,1.86892 23.51206,2.19228 31.3604,0.50911 z m 185.46278,-284.98416 c 25.4673,-2.35146 32.90081,-3.70539 46.68357,-8.50285 9.55552,-3.32606 24.82928,-11.87691 24.93965,-13.96219 0.15794,-2.98417 -27.83826,-12.35116 -42.9464,-14.36904 -18.94469,-2.5303 -19,-2.5298 -19,0.17184 0,2.31181 0.38913,2.46759 7.75,3.10256 20.68485,1.78435 42.25,7.16644 42.25,10.54449 0,4.0617 -24.32805,10.50819 -55.74127,14.77041 -19.17195,2.60129 -73.46877,2.53551 -84.75873,-0.10269 -8.7678,-2.04883 -12.41422,-3.59168 -14.53868,-6.15149 -2.94351,-3.54671 9.52776,-10.20331 24.3126,-12.97696 4.03246,-0.7565 4.54777,-1.54961 2.2473,-3.45882 -4.13491,-3.43168 -38.78322,9.19377 -40.14744,14.62927 -1.66292,6.6256 10.21526,13.11321 30.86107,16.85566 11.84591,2.14731 51.93229,1.86487 78.08833,-0.55019 z m -20.80611,-11.98447 c 25.35782,-1.63752 63.48293,-7.02289 63.48293,-8.96731 0,-3.67477 -35.43161,-7.78031 -36.68339,-4.25058 -2.53523,7.14881 -16.31661,7.22906 -16.31661,0.095 0,-2.23885 -16.12082,-2.49885 -31.5,-0.50805 -8.50643,1.10114 -9.00122,1.29699 -9.02231,3.57108 -0.0363,3.91251 -8.10327,5.64577 -11.5901,2.49023 -1.55159,-1.40417 -2.83179,-1.46042 -10.37929,-0.45604 -21.51277,2.86282 -15.43194,6.95637 11.9917,8.07268 8.8,0.35822 17.80768,0.7264 20.01707,0.81819 2.20938,0.0918 11.20938,-0.29756 20,-0.86522 z m -27.43528,-19.96789 c 1.9273,0 2.91821,-0.50934 2.91821,-1.5 0,-1.74743 -8.45405,-2.19238 -9.5,-0.5 -0.9362,1.5148 0.50611,3.21164 2.18294,2.56818 0.81435,-0.3125 2.79383,-0.56818 4.39885,-0.56818 z m 20.67321,-3.25 c -0.61575,-1.86971 -4.40859,-2.09512 -5.09634,-0.30287 -0.45848,1.19479 0.10787,1.55287 2.45606,1.55287 1.99444,0 2.9093,-0.43312 2.64028,-1.25 z m 16.245,-0.75 c 0,-2.10908 -1.45488,-2.69103 -2.5,-1 -0.7292,1.17988 0.21667,3 1.55902,3 0.51754,0 0.94098,-0.9 0.94098,-2 z m -17.62237,-11.75 c 0.28183,-0.9625 0.82201,-16.375 1.20041,-34.25 0.688,-32.5 0.688,-32.5 -2.05503,-40.75897 -1.50867,-4.54244 -3.09007,-8.47345 -3.51422,-8.7356 -0.42416,-0.26214 -2.01852,7.36233 -3.54303,16.94326 -2.77184,17.41989 -2.77184,17.41989 -0.55013,29.05497 2.45481,12.85582 4.03937,26.19999 4.0666,34.24634 0.0183,5.4192 3.11212,7.88273 4.3954,3.5 z m 25.22612,-17.75 c 9.97351,-33.36708 16.62329,-57.60629 15.98013,-58.24945 -0.64677,-0.64677 -2.49631,1.40616 -12.7737,14.17842 -9.61448,11.94841 -11.33295,19.85048 -11.86764,54.57103 -0.13067,8.48516 -0.19221,8.19674 1.66921,7.82333 1.1516,-0.23102 3.14783,-5.46236 6.992,-18.32333 z m -151.60375,7.06874 c 8.05462,-1.46217 23.36176,-6.39294 36.85925,-11.8732 l 8.35925,-3.39402 -9.35925,-6.48999 c -5.14759,-3.56949 -13.96577,-8.90243 -19.59597,-11.85099 l -10.23672,-5.361 -9.97202,9.79732 c -5.48461,5.38852 -10.55309,9.60384 -11.26328,9.36736 -3.2015,-1.066 -1.6309,-4.17287 6.12784,-12.1218 8.92922,-9.14807 9.31723,-9.98346 5.3309,-11.47731 -1.5125,-0.56679 -5.9,-2.333 -9.75,-3.92491 -22.68291,-9.37897 -28.09731,-10.61242 -32.71023,-7.45168 -7.14981,4.89901 -18.89543,9.65214 -19.90711,8.05586 -1.99951,-3.15492 -0.35942,-4.88746 9.36734,-9.89537 2.6125,-1.34506 4.75,-2.71244 4.75,-3.03861 0,-2.03273 -34.77538,-10.48724 -47.62162,-11.57766 -7.12161,-0.6045 -7.12161,-0.6045 -9.5,2.8065 -9.41974,13.50949 -16.01883,19.26429 -17.54123,15.29699 -0.83295,-2.17065 0.65415,-4.93166 6.56359,-12.18623 l 5.09114,-6.25 h -5.92358 c -13.73666,0 -31.00868,4.10074 -32.95149,7.82338 -0.52642,1.00868 -0.41044,3.46935 0.29113,6.17662 5.17419,19.96642 55.07586,52.10439 89.09206,57.37759 12.29538,1.90603 54.36643,2.03071 64.5,0.19115 z m 68.23568,-11.31874 c -15.09337,-24.72454 -49.44094,-62.59222 -79.74665,-87.91945 -14.71376,-12.29666 -33.88696,-27.0574 -40.48034,-31.16432 -12.91449,-8.04425 -37.52635,-6.54783 -55.0301,3.34587 -14.83235,8.38374 -37.78356,31.01544 -43.3383,42.73496 -6.19671,13.07398 -6.14986,13.19516 3.57406,9.24397 21.48212,-8.72896 59.00194,-6.61426 104.67817,5.8999 6.64123,1.81954 12.288,3.09521 12.54838,2.83484 0.67513,-0.67513 -2.66965,-6.87965 -6.85857,-12.72257 -4.14446,-5.78089 -4.38575,-7.11343 -1.45641,-8.04316 3.05013,-0.96808 14.03537,12.967 17.05851,21.63918 0.96197,2.7595 3.35263,4.18072 23.28177,13.84073 20.55093,9.96141 31.03222,16.00179 36.0338,20.76632 1.1,1.04786 6.725,5.68131 12.5,10.29654 5.775,4.61524 10.72991,8.71763 11.01091,9.11644 0.89144,1.26514 9.45767,7.86093 10.22247,7.87105 0.40335,0.005 -1.39561,-3.4778 -3.9977,-7.7403 z m 99.22778,-5.13488 c 1.70354,-5.36737 19.68622,-31.60241 29.83672,-43.52897 4.80998,-5.6516 5.7874,-7.39826 5.35363,-9.56707 -1.59102,-7.95511 -2.72617,-20.43045 -2.4585,-27.01908 0.29868,-7.3522 0.35888,-7.50623 3.05469,-7.81642 2.68819,-0.30931 2.75,-0.19947 2.75,4.88666 0,6.45084 2.07188,23.14672 3.00658,24.22808 0.37953,0.43908 3.33245,-2.48592 6.56204,-6.5 3.22959,-4.01407 10.04778,-11.88169 15.15154,-17.48359 9.27957,-10.18527 9.27957,-10.18527 7.7797,-17.31537 -3.32326,-15.79826 -1.64076,-33.24803 3.46946,-35.98294 1.88783,-1.01034 1.92984,-0.73466 1.3467,8.83727 -0.59018,9.68731 0.88082,24.24212 2.75383,27.24769 0.66535,1.06768 3.18557,-0.86786 10.65087,-8.17992 10.75665,-10.53586 19.03809,-18.25597 24.02928,-22.40052 3.25,-2.69872 3.25,-2.69872 3.25,-14.20275 0,-19.14433 4.00271,-35.31819 8.74055,-35.31819 2.63571,0 2.67886,0.52659 0.69643,8.5 -1.53148,6.15969 -3.23346,31.5 -2.11569,31.5 0.3428,0 7.74882,-5.2875 16.45782,-11.75 8.709,-6.4625 21.20897,-15.48883 27.77772,-20.05852 32.399636,-22.53949 37.547674,-26.06272 38.699574,-26.48528 8.896628,-3.26362 -66.680944,-5.07386 -78.756404,-1.88638 -19.98552,5.27545 -45.74571,22.23141 -66.57976,43.82433 -24.7011,25.60083 -46.2115,78.51596 -63.45821,156.10585 -0.60351,2.71507 1.15384,3.03566 2.00143,0.36512 z m 30.03654,-19.2428 c 10.21119,-5.22861 17.28705,-7.77651 39.93603,-14.38032 25.42114,-7.41209 54.61959,-22.65273 64.8491,-33.8491 3.59331,-3.93295 11.3456,-18.70071 20.8104,-39.6429 5.13775,-11.36796 13.76143,-26.18807 21.73391,-37.35051 3.201309,-4.48222 7.36181,-10.60933 9.24556,-13.61581 1.883749,-3.00648 6.687499,-10.41084 10.674999,-16.45414 6.825127,-10.3439 8.016201,-12.57954 6.701963,-12.57954 -1.283732,0 -13.26724,8.2437 -31.817852,21.88814 -10.92624,8.03653 -23.30124,17.06142 -27.5,20.05532 -4.19876,2.9939 -8.12382,5.92647 -8.72236,6.51682 -0.59854,0.59035 -3.63604,2.82809 -6.75,4.97276 -7.48028,5.15187 -6.95086,6.51829 2.53903,6.55331 4.97853,0.0184 13.17737,1.83846 15.31167,3.3991 3.04493,2.22651 1.01882,5.94303 -2.86126,5.24843 -28.17833,-5.04439 -25.41619,-5.79019 -46.15119,12.46128 -18.6697,16.43353 -55.98025,56.75793 -54.1808,58.55738 0.21553,0.21552 3.97943,-0.01 8.36424,-0.50008 11.09455,-1.24125 18.0795,-0.47473 18.88804,2.07276 1.02262,3.222 -0.33615,3.61646 -16.81815,4.88247 -15.74667,1.20952 -15.74667,1.20952 -21.54394,8.30092 -6.84305,8.37064 -13.20939,17.07413 -13.20939,18.0587 0,0.83273 -0.68842,1.134 10.5,-4.59499 z m -90.90891,-0.62232 c -0.69984,-2.25263 -4.0507,-19.65276 -5.57182,-28.93293 -1.17735,-7.18292 -1.17735,-7.18292 -5.57507,-8.68138 -7.56638,-2.57812 -19.4442,-12.81071 -19.4442,-16.75092 0,-3.51928 2.9319,-3.354 6.82055,0.38449 3.65746,3.51625 12.83814,9.73074 14.37523,9.73074 1.41055,0 0.88429,-3.02701 -4.50662,-25.92198 -5.27954,-22.42199 -5.27954,-22.42199 -8.23435,-22.79724 -7.25273,-0.92105 -22.45472,-10.02504 -22.45478,-13.44744 -5e-5,-2.88237 2.28262,-2.6587 9.4608,0.92701 11.67496,5.83199 14.53917,6.60699 14.53917,3.93403 0,-4.53343 -9.97249,-38.6668 -14.96129,-51.20877 -5.03412,-12.65593 -5.28423,-13.05218 -9.85198,-15.60778 -4.56216,-2.55249 -13.09958,-8.81069 -20.18673,-14.79752 -2.74787,-2.32125 -3.23958,-3.21957 -2.28816,-4.1803 0.95346,-0.96278 3.56926,0.33503 12.26809,6.08673 6.08094,4.02073 11.22719,7.13106 11.43612,6.91184 0.20893,-0.21922 -1.59619,-5.70043 -4.01137,-12.18046 -2.41519,-6.48004 -5.76325,-17.28004 -7.44014,-24 -4.5786,-18.34825 -4.72862,-18.71812 -7.59175,-18.71812 -9.35955,0 -22.23675,16.69224 -28.54357,37 -4.04133,13.01293 -2.45263,39.15671 3.61567,59.5 1.3125,4.4 2.91172,10.7 3.55382,14 6.14036,31.55743 23.89549,60.57672 53.50129,87.44339 9.91284,8.9957 21.74882,21.47892 26,27.42176 3.98854,5.5757 6.12223,7.20385 5.09109,3.88485 z m 42.01761,-21.01796 c 1.70978,-2.60262 7.62894,-9.95252 13.1537,-16.33311 11.05434,-12.76678 11.70204,-13.8407 19.23854,-31.89893 14.48885,-34.71676 29.65775,-60.13947 46.42242,-77.80283 10.41543,-10.97377 32.41345,-27.84991 39.54112,-30.33463 3.96484,-1.38215 3.88345,-0.87538 4.59264,-28.59456 1.0879,-42.52078 -5.37038,-82.37249 -17.26207,-106.51798 -3.72454,-7.5625 -7.09837,-13.75 -7.49741,-13.75 -1.01265,0 -23.2777,45.64893 -27.31373,56 -6.11686,15.68772 -21.27915,62 -20.29833,62 0.53364,0 8.63847,-3.375 18.01074,-7.5 17.1161,-7.53327 20.80368,-8.62771 20.80368,-6.17431 0,3.25033 -7.68069,7.79166 -24.07491,14.23466 -15.02834,5.90621 -16.81756,7.02142 -18.83355,11.73887 -3.89048,9.10381 -19.09154,61.95576 -19.09154,66.37861 0,1.20906 0.60444,1.11416 3.25,-0.51025 3.09813,-1.90229 10.47715,-5.63839 22.94732,-11.61854 3.13352,-1.5027 6.17102,-2.43942 6.75,-2.0816 4.26919,2.63851 -3.97413,8.86143 -28.31752,21.37704 -9.8702,5.07454 -9.8702,5.07454 -16.77619,25.36503 -6.62107,19.4534 -10.8317,34.24547 -10.84661,38.10448 -0.01,2.5495 5.80934,-0.79859 15.75373,-9.06399 8.02211,-6.66766 8.02739,-6.67047 10.09251,-5.36186 4.15377,2.63213 -18.17111,22.11186 -25.34144,22.11186 -2.13009,0 -2.89801,2.35599 -5.97994,18.34653 -1.46779,7.61559 -2.91106,14.47809 -3.20727,15.25 -1.18497,3.08796 1.35629,1.0922 4.28411,-3.36449 z m -33.44595,-23.38791 c 2.06296,-11.65586 2.06296,-11.65586 -0.006,-18 -2.64398,-8.1088 -5.3182,-18.98261 -8.69223,-35.34413 -3.46502,-16.80273 -3.4057,-16.72021 -7.40567,-10.30144 -3.3037,5.30144 -3.3037,5.30144 -0.1725,19.80144 1.72216,7.975 4.21083,20.8 5.53038,28.5 5.73545,33.46815 6.98984,38.63989 7.88279,32.5 0.43995,-3.025 1.72823,-10.74514 2.86286,-17.15587 z m 22.77724,10.90587 c 1.14778,-8.09281 4.9761,-29.88686 7.1581,-40.75 0.60761,-3.025 1.99157,-8.16967 3.07547,-11.4326 1.97072,-5.9326 1.97072,-5.9326 -0.51357,-13.5 -3.89048,-11.85078 -4.3212,-27.96882 -0.98007,-36.67567 1.43624,-3.74279 2.61194,-0.24027 2.41538,7.19568 -0.21687,8.20408 2.05137,21.95927 3.93105,23.83895 1.60508,1.60507 2.2366,0.11899 10.11993,-23.81398 6.57474,-19.96022 7.08387,-22.08353 5.78166,-24.1124 -0.78537,-1.22363 -3.53214,-5.38934 -6.10393,-9.25714 -7.55514,-11.3624 -15.17658,-32.27571 -13.42536,-36.83932 1.25754,-3.2771 3.53459,-1.11721 6.16363,5.84648 4.76341,12.61716 15.25899,31.75 17.41689,31.75 0.38281,0 2.12551,-5.2875 3.87266,-11.75 1.74715,-6.4625 6.82003,-22.74982 11.27306,-36.19405 8.09641,-24.44406 8.09641,-24.44406 5.58083,-29.5 -7.60025,-15.27542 -12.34701,-32.71215 -9.23068,-33.908 2.53007,-0.97088 2.56082,-0.92409 9.03504,13.74914 3.29445,7.46659 6.21641,13.58176 6.49324,13.58927 0.27683,0.008 1.56057,-3.02386 2.85276,-6.73636 4.39885,-12.63806 9.36344,-24.7296 15.08895,-36.75 4.87195,-10.22837 8.49361,-16.85972 18.94319,-34.68544 0.86582,-1.47699 1.35768,-2.90046 1.093,-3.16327 -0.7234,-0.71828 -31.46085,5.03329 -39.48122,7.38771 -41.3378,12.1349 -74.81128,43.79153 -80.32058,75.961 -12.8396,74.97192 -11.62016,118.96723 4.87248,175.79115 1.70949,5.88987 3.48681,12.95885 3.94962,15.70885 0.71989,4.2776 8.67588,26.5 9.48745,26.5 0.15452,0 0.80748,-3.7125 1.45102,-8.25 z m -39.4069,-80.39667 c 2.72313,-4.64668 2.72313,-4.64668 1.34502,-15.25 -0.92396,-7.10904 -1.30706,-19.05179 -1.16252,-36.23997 l 0.21559,-25.63664 -10.98787,-10.8277 c -13.95324,-13.74985 -31.30092,-27.06277 -31.75489,-24.36928 -0.80705,4.78828 11.34563,42.28863 17.81715,54.97959 2.81752,5.52531 8.73977,21.11445 10.87859,28.63578 1.63294,5.74233 8.29082,27.89323 9.64975,32.10489 0.63133,1.95666 1.09044,1.56671 3.99918,-3.39667 z"
             id="path4"
             sodipodi:nodetypes="ssssssssssssssssssssscssssssssssssssssssssscsssssssssssssssscssssssssssssssssssssssssssssssssssssscssssssssssssssssssssssssscsssssssssssssssssssssssssscssssssssssssssssssssssssssssssssssssssssssssssssssssssssssssssssssssssscsssssssssssssssssssssssssssssssssssssssssssssssssssssssssssssssssssssssssssssssssssssssssssssssssssssssssssssssssssssssssssssssssssssssssssssssssssssssssssssssssssssssssssssssssssssssssssssssssscsscssssssssssssscssssssssssssssssssssssssssssssssssssssssssssssssssssssssssssssssscssssssssssssssssssssssssssssssssssssssssssssssssssscssssssccsssssscsssssssssssssssssscssssssssssssscssss" /></g></g></g></g></svg>
